<svg id="eaMyQtI1Zh71" xmlns="http://www.w3.org/2000/svg" xmlns:xlink="http://www.w3.org/1999/xlink" viewBox="0 0 900 600" shape-rendering="geometricPrecision" text-rendering="geometricPrecision">
<style><![CDATA[
#eaMyQtI1Zh74_to {animation: eaMyQtI1Zh74_to__to 3s ease-in-out infinite alternate forwards}@keyframes eaMyQtI1Zh74_to__to { 0% {transform: translate(-147.173644px,151.043245px)} 6.666667% {transform: translate(-147.173644px,151.043245px);animation-timing-function: cubic-bezier(0.42,0,0.58,1)} 36.666667% {transform: translate(-206.008774px,192.033412px)} 100% {transform: translate(-206.008774px,192.033412px)}} #eaMyQtI1Zh75_to {animation: eaMyQtI1Zh75_to__to 3s ease-in-out infinite alternate forwards}@keyframes eaMyQtI1Zh75_to__to { 0% {transform: translate(-121.699997px,121.699997px)} 6.333333% {transform: translate(-121.699997px,121.699997px);animation-timing-function: cubic-bezier(0.42,0,0.58,1)} 39.666667% {transform: translate(-157.814106px,157.814106px)} 100% {transform: translate(-157.814106px,157.814106px)}} #eaMyQtI1Zh76_to {animation: eaMyQtI1Zh76_to__to 3s ease-in-out infinite alternate forwards}@keyframes eaMyQtI1Zh76_to__to { 0% {transform: translate(-81.099998px,81.099998px)} 6.333333% {transform: translate(-81.099998px,81.099998px);animation-timing-function: cubic-bezier(0.42,0,0.58,1)} 43% {transform: translate(-118.132424px,124.031675px)} 100% {transform: translate(-118.132424px,124.031675px)}} #eaMyQtI1Zh77_to {animation: eaMyQtI1Zh77_to__to 3s ease-in-out infinite alternate forwards}@keyframes eaMyQtI1Zh77_to__to { 0% {transform: translate(-40.550052px,87.417843px)} 6.333333% {transform: translate(-40.550052px,87.417843px);animation-timing-function: cubic-bezier(0.42,0,0.58,1)} 46.333333% {transform: translate(-55.626408px,105.284539px)} 100% {transform: translate(-55.626408px,105.284539px)}} #eaMyQtI1Zh79_to {animation: eaMyQtI1Zh79_to__to 3s ease-in-out infinite alternate forwards}@keyframes eaMyQtI1Zh79_to__to { 0% {transform: translate(162.25px,-162.25px);animation-timing-function: cubic-bezier(0.42,0,0.58,1)} 33.333333% {transform: translate(162.25px,-172.75px)} 100% {transform: translate(162.25px,-172.75px)}} #eaMyQtI1Zh710_to {animation: eaMyQtI1Zh710_to__to 3s ease-in-out infinite alternate forwards}@keyframes eaMyQtI1Zh710_to__to { 0% {transform: translate(121.699997px,-121.699997px);animation-timing-function: cubic-bezier(0.42,0,0.58,1)} 36.666667% {transform: translate(128.156999px,-146.19991px)} 100% {transform: translate(128.156999px,-146.19991px)}} #eaMyQtI1Zh711_to {animation: eaMyQtI1Zh711_to__to 3s ease-in-out infinite alternate forwards}@keyframes eaMyQtI1Zh711_to__to { 0% {transform: translate(81.099998px,-81.099998px);animation-timing-function: cubic-bezier(0.42,0,0.58,1)} 40% {transform: translate(115.967804px,-107.881623px)} 100% {transform: translate(115.967804px,-107.881623px)}} #eaMyQtI1Zh712_to {animation: eaMyQtI1Zh712_to__to 3s ease-in-out infinite alternate forwards}@keyframes eaMyQtI1Zh712_to__to { 0% {transform: translate(40.549999px,-40.549999px);animation-timing-function: cubic-bezier(0.42,0,0.58,1)} 43.333333% {transform: translate(79.099869px,-67.100041px)} 100% {transform: translate(79.099869px,-67.100041px)}}
]]></style>
<rect width="900" height="600" rx="0" ry="0" fill="#ffe2e0"/><g transform="translate(900 0)"><g id="eaMyQtI1Zh74_to" transform="translate(-147.173644,151.043245)"><path d="M0,324.5c-41.4-5.2-82.9-10.5-124.2-24.7s-82.5-37.4-104.2-71.4-24-78.7-36.8-118.6C-277.9,70,-301.2,35,-324.5,0L0,0Z" transform="scale(1.291958,1.291958) translate(162.25,-162.25)" fill="#ffd2cf"/></g><g id="eaMyQtI1Zh75_to" transform="translate(-121.699997,121.699997)"><path d="M0,243.4c-31.1-4-62.2-7.9-93.1-18.6-31-10.6-61.9-28-78.2-53.5s-18-59-27.6-88.9c-9.5-29.9-27-56.2-44.5-82.4L0,0Z" transform="scale(1.296747,1.296747) translate(121.699997,-121.699997)" fill="#ffb2ac"/></g><g id="eaMyQtI1Zh76_to" transform="translate(-81.099998,81.099998)"><path d="M0,162.2c-20.7-2.6-41.4-5.2-62.1-12.3-20.6-7.1-41.2-18.7-52.1-35.7s-12-39.4-18.4-59.3-18-37.4-29.6-54.9L0,0Z" transform="scale(1.545878,1.545878) translate(81.099998,-81.099998)" fill="#ff9289"/></g><g id="eaMyQtI1Zh77_to" transform="translate(-40.550052,87.417843)"><path d="M0,81.1c-10.4-1.3-20.7-2.6-31-6.2-10.4-3.5-20.7-9.3-26.1-17.8s-6-19.7-9.2-29.6c-3.2-10-9-18.8-14.8-27.5L0,0Z" transform="scale(2.629435,2.629435) translate(40.549999,-40.549999)" fill="#ff8177"/></g></g><g transform="matrix(.881966 0 0 0.850561 0 600)"><g id="eaMyQtI1Zh79_to" transform="translate(162.25,-162.25)"><path d="M0,-324.5c40.6,9.1,81.3,18.3,120.9,32.6c39.7,14.2,78.4,33.6,108.6,62.4c30.1,28.9,51.7,67.2,66.1,107c14.5,39.9,21.7,81.2,28.9,122.5L0,0Z" transform="scale(1.225787,1.265043) translate(-162.25,162.25)" fill="#ffd2cf"/></g><g id="eaMyQtI1Zh710_to" transform="translate(121.699997,-121.699997)"><path d="M0,-243.4c30.5,6.9,60.9,13.7,90.7,24.4c29.7,10.7,58.8,25.3,81.4,46.9s38.8,50.4,49.6,80.3C232.5,-62,238,-31,243.4,0L0,0Z" transform="scale(1.201314,1.201314) translate(-121.699997,121.699997)" fill="#ffb2ac"/></g><g id="eaMyQtI1Zh711_to" transform="translate(81.099998,-81.099998)"><path d="M0,-162.2c20.3,4.5,40.6,9.1,60.5,16.2c19.8,7.2,39.1,16.8,54.2,31.3c15.1,14.4,25.9,33.6,33.1,53.5s10.8,40.5,14.4,61.2L0,0Z" transform="scale(1.805108,1.495927) translate(-81.099998,81.099998)" fill="#ff9289"/></g><g id="eaMyQtI1Zh712_to" transform="translate(40.549999,-40.549999)"><path d="M0,-81.1c10.2,2.3,20.3,4.5,30.2,8.1s19.6,8.4,27.2,15.6c7.5,7.2,12.9,16.8,16.5,26.8c3.6,9.9,5.4,20.3,7.2,30.6L0,0Z" transform="scale(1.950675,1.950675) translate(-40.549999,40.549999)" fill="#ff8177"/></g></g></svg>
