<svg id="eWPn8JE12Mk1" xmlns="http://www.w3.org/2000/svg" xmlns:xlink="http://www.w3.org/1999/xlink" viewBox="0 0 900 600" shape-rendering="geometricPrecision" text-rendering="geometricPrecision">
<style><![CDATA[
#eWPn8JE12Mk3_to {animation: eWPn8JE12Mk3_to__to 6s ease-in-out infinite alternate forwards}@keyframes eWPn8JE12Mk3_to__to { 0% {transform: translate(450px,436.5px)} 50% {transform: translate(450px,400.5px)} 100% {transform: translate(450px,436.5px)}} #eWPn8JE12Mk4_to {animation: eWPn8JE12Mk4_to__to 6s ease-in-out infinite alternate forwards}@keyframes eWPn8JE12Mk4_to__to { 0% {transform: translate(450px,468.811035px)} 50% {transform: translate(450px,480.811035px);animation-timing-function: cubic-bezier(0.42,0,0.58,1)} 100% {transform: translate(450px,468.811035px)}} #eWPn8JE12Mk5_to {animation: eWPn8JE12Mk5_to__to 6s ease-in-out infinite alternate forwards}@keyframes eWPn8JE12Mk5_to__to { 0% {transform: translate(450px,507px)} 50% {transform: translate(450px,494px)} 100% {transform: translate(450px,507px)}} #eWPn8JE12Mk6_to {animation: eWPn8JE12Mk6_to__to 6s ease-in-out infinite alternate forwards}@keyframes eWPn8JE12Mk6_to__to { 0% {transform: translate(450px,535.406267px)} 50% {transform: translate(450px,546.406267px)} 100% {transform: translate(450px,535.406267px)}}
]]></style>
<rect width="900" height="600" rx="0" ry="0" fill="#ffe2df"/><g id="eWPn8JE12Mk3_to" transform="translate(450,436.5)"><path d="M0,328l18.8,4.3c18.9,4.4,56.5,13,94,20.9c37.5,7.8,74.9,14.8,112.4,19.1c37.5,4.4,75.1,6,112.6,4s74.9-7.6,112.4-4.1s75.1,16.1,112.6,16.8s74.9-10.7,112.4-9.2s75.1,15.9,112.6,0C825.3,364,862.7,318,881.3,295L900,272v329h-18.7c-18.6,0-56,0-93.5,0s-75.1,0-112.6,0-74.9,0-112.4,0-75.1,0-112.6,0-74.9,0-112.4,0-75.1,0-112.6,0-74.9,0-112.4,0-75.1,0-94,0L0,601Z" transform="translate(-450,-436.5)" fill="#ffd2cf"/></g><g id="eWPn8JE12Mk4_to" transform="translate(450,468.811035)"><path d="M0,374l18.8.8c18.9.9,56.5,2.5,94,16.7s74.9,40.8,112.4,53.3s75.1,10.9,112.6,2.5c37.5-8.3,74.9-23.3,112.4-29c37.5-5.6,75.1-2,112.6,5.4c37.5,7.3,74.9,18.3,112.4,8.5c37.5-9.9,75.1-40.5,112.6-55.4c37.5-14.8,74.9-13.8,93.5-13.3l18.7.5v237h-18.7c-18.6,0-56,0-93.5,0s-75.1,0-112.6,0-74.9,0-112.4,0-75.1,0-112.6,0-74.9,0-112.4,0-75.1,0-112.6,0-74.9,0-112.4,0-75.1,0-94,0L0,601Z" transform="translate(-450,-482.134888)" fill="#ffb5b0"/></g><g id="eWPn8JE12Mk5_to" transform="translate(450,507)"><path d="M0,413l18.8,2.8c18.9,2.9,56.5,8.5,94,12.2s74.9,5.3,112.4,5s75.1-2.7,112.6,5.7c37.5,8.3,74.9,27.3,112.4,38.5c37.5,11.1,75.1,14.5,112.6,3.3s74.9-36.8,112.4-40s75.1,16.2,112.6,18.5s74.9-12.3,93.5-19.7L900,432v169h-18.7c-18.6,0-56,0-93.5,0s-75.1,0-112.6,0-74.9,0-112.4,0-75.1,0-112.6,0-74.9,0-112.4,0-75.1,0-112.6,0-74.9,0-112.4,0-75.1,0-94,0L0,601Z" transform="translate(-450,-507)" fill="#ff9890"/></g><g id="eWPn8JE12Mk6_to" transform="translate(450,535.406267)"><path d="M0,538l18.8-2.5c18.9-2.5,56.5-7.5,94-9.5s74.9-1,112.4,3s75.1,11,112.6,13s74.9-1,112.4-.7c37.5.4,75.1,4,112.6,1.2s74.9-12.2,112.4-23.7s75.1-25.1,112.6-26.8s74.9,8.7,93.5,13.8L900,511v90h-18.7c-18.6,0-56,0-93.5,0s-75.1,0-112.6,0-74.9,0-112.4,0-75.1,0-112.6,0-74.9,0-112.4,0-75.1,0-112.6,0-74.9,0-112.4,0-75.1,0-94,0L0,601Z" transform="scale(1,1.198172) translate(-450,-546.407166)" fill="#ff8177"/></g></svg>
