<svg id="visual" viewBox="0 0 900 600" width="900" height="600" xmlns="http://www.w3.org/2000/svg" xmlns:xlink="http://www.w3.org/1999/xlink" version="1.1"><rect x="0" y="0" width="900" height="600" fill="#ffe2e0"></rect><defs><linearGradient id="grad1_0" x1="33.3%" y1="0%" x2="100%" y2="100%"><stop offset="20%" stop-color="#ff8177" stop-opacity="1"></stop><stop offset="80%" stop-color="#ff8177" stop-opacity="1"></stop></linearGradient></defs><defs><linearGradient id="grad1_1" x1="33.3%" y1="0%" x2="100%" y2="100%"><stop offset="20%" stop-color="#ff8177" stop-opacity="1"></stop><stop offset="80%" stop-color="#ffa29a" stop-opacity="1"></stop></linearGradient></defs><defs><linearGradient id="grad1_2" x1="33.3%" y1="0%" x2="100%" y2="100%"><stop offset="20%" stop-color="#ffc2bd" stop-opacity="1"></stop><stop offset="80%" stop-color="#ffa29a" stop-opacity="1"></stop></linearGradient></defs><defs><linearGradient id="grad1_3" x1="33.3%" y1="0%" x2="100%" y2="100%"><stop offset="20%" stop-color="#ffc2bd" stop-opacity="1"></stop><stop offset="80%" stop-color="#ffe2e0" stop-opacity="1"></stop></linearGradient></defs><defs><linearGradient id="grad2_0" x1="0%" y1="0%" x2="66.7%" y2="100%"><stop offset="20%" stop-color="#ff8177" stop-opacity="1"></stop><stop offset="80%" stop-color="#ff8177" stop-opacity="1"></stop></linearGradient></defs><defs><linearGradient id="grad2_1" x1="0%" y1="0%" x2="66.7%" y2="100%"><stop offset="20%" stop-color="#ffa29a" stop-opacity="1"></stop><stop offset="80%" stop-color="#ff8177" stop-opacity="1"></stop></linearGradient></defs><defs><linearGradient id="grad2_2" x1="0%" y1="0%" x2="66.7%" y2="100%"><stop offset="20%" stop-color="#ffa29a" stop-opacity="1"></stop><stop offset="80%" stop-color="#ffc2bd" stop-opacity="1"></stop></linearGradient></defs><defs><linearGradient id="grad2_3" x1="0%" y1="0%" x2="66.7%" y2="100%"><stop offset="20%" stop-color="#ffe2e0" stop-opacity="1"></stop><stop offset="80%" stop-color="#ffc2bd" stop-opacity="1"></stop></linearGradient></defs><g transform="translate(900, 0)"><path d="M0 324.5C-41.4 319.3 -82.9 314 -124.2 299.8C-165.5 285.6 -206.7 262.4 -228.4 228.4C-250.1 194.4 -252.4 149.7 -265.2 109.8C-277.9 70 -301.2 35 -324.5 0L0 0Z" fill="#ffd2cf"></path><path d="M0 243.4C-31.1 239.4 -62.2 235.5 -93.1 224.8C-124.1 214.2 -155 196.8 -171.3 171.3C-187.6 145.8 -189.3 112.3 -198.9 82.4C-208.4 52.5 -225.9 26.2 -243.4 0L0 0Z" fill="#ffb2ac"></path><path d="M0 162.2C-20.7 159.6 -41.4 157 -62.1 149.9C-82.7 142.8 -103.3 131.2 -114.2 114.2C-125.1 97.2 -126.2 74.8 -132.6 54.9C-139 35 -150.6 17.5 -162.2 0L0 0Z" fill="#ff9289"></path><path d="M0 81.1C-10.4 79.8 -20.7 78.5 -31 74.9C-41.4 71.4 -51.7 65.6 -57.1 57.1C-62.5 48.6 -63.1 37.4 -66.3 27.5C-69.5 17.5 -75.3 8.7 -81.1 0L0 0Z" fill="#ff8177"></path></g><g transform="translate(0, 600)"><path d="M0 -324.5C40.6 -315.4 81.3 -306.2 120.9 -291.9C160.6 -277.7 199.3 -258.3 229.5 -229.5C259.6 -200.6 281.2 -162.3 295.6 -122.5C310.1 -82.6 317.3 -41.3 324.5 0L0 0Z" fill="#ffd2cf"></path><path d="M0 -243.4C30.5 -236.5 60.9 -229.7 90.7 -219C120.4 -208.3 149.5 -193.7 172.1 -172.1C194.7 -150.5 210.9 -121.7 221.7 -91.8C232.5 -62 238 -31 243.4 0L0 0Z" fill="#ffb2ac"></path><path d="M0 -162.2C20.3 -157.7 40.6 -153.1 60.5 -146C80.3 -138.8 99.6 -129.2 114.7 -114.7C129.8 -100.3 140.6 -81.1 147.8 -61.2C155 -41.3 158.6 -20.7 162.2 0L0 0Z" fill="#ff9289"></path><path d="M0 -81.1C10.2 -78.8 20.3 -76.6 30.2 -73C40.1 -69.4 49.8 -64.6 57.4 -57.4C64.9 -50.2 70.3 -40.6 73.9 -30.6C77.5 -20.7 79.3 -10.3 81.1 0L0 0Z" fill="#ff8177"></path></g></svg>