<svg id="visual" viewBox="0 0 900 600" width="900" height="600" xmlns="http://www.w3.org/2000/svg" xmlns:xlink="http://www.w3.org/1999/xlink" version="1.1"><rect x="0" y="0" width="900" height="600" fill="#FFE2E0"></rect><defs><linearGradient id="grad1_0" x1="33.3%" y1="100%" x2="100%" y2="0%"><stop offset="20%" stop-color="#ffe2e0" stop-opacity="1"></stop><stop offset="80%" stop-color="#ffe2e0" stop-opacity="1"></stop></linearGradient></defs><defs><linearGradient id="grad2_0" x1="0%" y1="100%" x2="66.7%" y2="0%"><stop offset="20%" stop-color="#ffe2e0" stop-opacity="1"></stop><stop offset="80%" stop-color="#ffe2e0" stop-opacity="1"></stop></linearGradient></defs><g transform="translate(900, 600)"><path d="M-297.5 0C-295.4 -31.5 -293.3 -63 -282.9 -91.9C-272.5 -120.9 -253.9 -147.3 -232.2 -168.7C-210.4 -190.1 -185.6 -206.4 -161.1 -221.7C-136.5 -236.9 -112.4 -251 -85.6 -263.4C-58.8 -275.9 -29.4 -286.7 0 -297.5L0 0Z" fill="#FF9289"></path></g><g transform="translate(0, 0)"><path d="M297.5 0C294.7 31.1 291.9 62.2 282.9 91.9C273.9 121.7 258.6 150.1 237.9 172.8C217.1 195.5 191 212.5 165.2 227.3C139.4 242.2 114 255 86.5 266.3C59.1 277.6 29.5 287.5 0 297.5L0 0Z" fill="#FF9289"></path></g></svg>